# xmcd
#
# Track frame offsets: 
#        150
#        18241
#        38327
#        56610
#        77119
#        101806
#        128369
#        145201
#        159810
#        183452
#
# Disc length: 2758 seconds
#
# Revision: 0
# Processed by: cddbd v1.5.2PL0 Copyright (c) Steve Scherf et al.
# Submitted via: ExactAudioCopy v0.99pb4
#
DISCID=700ac40a
DTITLE=Johnny Smith - Just A Man
DYEAR=2002
DGENRE=Blues
TTITLE0=Magic City
TTITLE1=Tell Me About It
TTITLE2=Simple Fate
TTITLE3=When I'm With You
TTITLE4=Sweet Elena
TTITLE5=Crooked Minds
TTITLE6=Oh Why
TTITLE7=She's Home
TTITLE8=What's The News
TTITLE9=Just A Man
EXTD=
EXTT0=
EXTT1=
EXTT2=
EXTT3=
EXTT4=
EXTT5=
EXTT6=
EXTT7=
EXTT8=
EXTT9=
PLAYORDER=
